<svg width="23" height="40" viewBox="0 0 23 40" fill="none" xmlns="http://www.w3.org/2000/svg">
<path d="M22.1207 0.9079C22.6831 1.47048 22.999 2.23341 22.999 3.0289C22.999 3.82439 22.6831 4.58732 22.1207 5.1499L7.27067 19.9999L22.1207 34.8499C22.6671 35.4157 22.9695 36.1735 22.9627 36.9601C22.9559 37.7467 22.6403 38.4991 22.0841 39.0554C21.5279 39.6116 20.7755 39.9271 19.9889 39.9339C19.2023 39.9408 18.4445 39.6384 17.8787 39.0919L0.907665 22.1209C0.345251 21.5583 0.0293045 20.7954 0.0293045 19.9999C0.0293045 19.2044 0.345251 18.4415 0.907665 17.8789L17.8787 0.9079C18.4412 0.345487 19.2042 0.029541 19.9997 0.029541C20.7952 0.029541 21.5581 0.345487 22.1207 0.9079Z" fill="white"/>
</svg>
