<svg width="23" height="40" viewBox="0 0 23 40" fill="none" xmlns="http://www.w3.org/2000/svg">
<path d="M0.878848 0.9079C0.316435 1.47048 0.000488281 2.23341 0.000488281 3.0289C0.000488281 3.82439 0.316435 4.58732 0.878848 5.1499L15.7288 19.9999L0.878848 34.8499C0.332374 35.4157 0.0299894 36.1735 0.0368247 36.9601C0.04366 37.7467 0.359168 38.4991 0.915392 39.0554C1.47162 39.6116 2.22405 39.9271 3.01064 39.9339C3.79723 39.9408 4.55504 39.6384 5.12085 39.0919L22.0918 22.1209C22.6543 21.5583 22.9702 20.7954 22.9702 19.9999C22.9702 19.2044 22.6543 18.4415 22.0918 17.8789L5.12085 0.9079C4.55826 0.345487 3.79534 0.029541 2.99985 0.029541C2.20435 0.029541 1.44143 0.345487 0.878848 0.9079Z" fill="white"/>
</svg>
